<?xml version="1.0" encoding="UTF-8"?>
<svg id="Warstwa_1" xmlns="http://www.w3.org/2000/svg" viewBox="0 0 53.45 45.51">
  <defs>
    <style>
      .cls-1 {
        fill: #a5a4a4;
      }

      .cls-2 {
        fill: #29abe3;
      }
    </style>
  </defs>
  <g id="Warstwa_9">
    <path class="cls-1" d="M8.98,33.86c-1-1.84-2.07-3.64-2.91-5.52-1.53-3.41-2.34-7.02-2.68-10.73-.04-.23-.08-.46-.19-.96-.84,2.26-1.23,4.37-1.19,6.52.04,4.1,1.15,7.86,3.49,11.19q.77,1.07-.15,2.07c-.12.12-.27.23-.38.38-5.6-6.06-7.51-18.21-.08-27.22C12.93-.14,25.46.59,32.21,5.8c-.5.46-1,.88-1.57,1.27-5.67-3.99-14.38-3.95-19.97,0-.23.15-.35.54-.54.81.42.12.61.04.81,0,3.99-1.3,8.05-2.07,12.23-1.8,2.49.15,4.95.69,7.44,1.07-.38.54-.77,1.15-1.23,1.61-.15.15-.54.08-.81.04-5.87-1.3-11.65-.77-17.33,1.11-1.3.42-1.3.46-1.04,2.03,5.87-1.34,11.73-1.34,17.63.38.73.27,1.38.46,1.99.69,2.84,1.15,5.52,2.61,8.09,4.68.38-1.84-.73-2.99-1.34-4.33-.65-1.42-1.73-2.42-3.37-2.91.73-.84,1.3-1.5,1.96-2.26,4.91,5.29,7.02,11.46,5.87,18.63-1.15,7.17-5.14,12.31-11.54,15.76,2.65,1.15,5.06,1.3,7.55.27,2.8-1.15,5.6-2.34,8.47-3.3,1.92-.65,3.95-.92,5.94-.31.61.19,1.23.58,1.99.92-.5.54-.84.92-1.23,1.3-.12.12-.35.15-.46.08-2.03-1.07-4.1-.58-6.06.04-2.42.77-4.83,1.69-7.13,2.76-3.72,1.76-7.28,1.5-10.81-.42-.42-.23-1.04-.31-1.46-.19-6.36,1.69-12.27.65-17.67-3.26-.27-.19-.5-.42-.84-.69.42-.5.81-1,1.19-1.46,2.49,1.3,4.56,3.68,7.74,2.84-2.38-1.61-4.45-3.57-6.44-5.75-.54-.54-.92-1.04-1.3-1.53M25.73,35.9c2.45-1.92,4.6-4.1,6.52-6.75-.92-.5-1.76-.92-2.45-1.3-.84,1.8-1.61,3.49-2.49,5.14-.54,1-1.23,1.88-1.92,2.84-.04.08-.04.12-.08.19.12-.04.23-.08.42-.12M20.06,37.12c-2.26-1.42-4.18-3.18-5.83-5.29-4.14-5.29-5.71-11.54-6.02-18.17-.08-1.46,0-2.95,0-4.41-.08-.04-.19-.08-.27-.12-.88,1.07-1.76,2.15-2.57,3.22-.15.23-.23.58-.23.84.04,5.14.84,10.12,2.95,14.84,2.26,5.02,5.64,9.05,10.47,11.69.27.15.65.31.88.23.96-.46,1.84-1,2.88-1.57-.88-.46-1.53-.84-2.26-1.27M10.21,14.69c.08.61.12,1.27.23,2.03,9.16-.73,17.75.96,25.53,6.06.12-.15.19-.23.23-.31.27-.61.46-1.27.77-1.84.35-.69.15-1.07-.42-1.5-7.82-5.94-16.48-7.25-25.8-5.21-.23.04-.38.42-.54.77M11.66,18.68c-.27.04-.58.08-.96.12.19.96.38,1.8.58,2.65,8.01-.19,15.26,2.19,22.2,6.06.54-.92,1.07-1.84,1.65-2.8-.81-.5-1.5-.96-2.22-1.34-6.56-3.72-13.61-5.1-21.24-4.68M37,28.11c.69-1.46,1.53-2.91,2.07-4.45.31-.88.15-1.92.23-2.88-.12,0-.19-.04-.31-.04-1.73,4.79-4.29,9.01-7.71,12.69-3.41,3.68-7.4,6.56-11.85,8.89.58.04,1.15.08,1.61-.15,6.63-3.03,12.04-7.55,15.95-14.07M22.44,32.71c-.58.81-1.15,1.61-1.73,2.42,1.34,1.27,1.65,1.27,2.76-.12.19-.27.42-.5.61-.77,1.5-1.99,2.84-4.14,3.49-6.63.08-.27-.04-.77-.23-.84-.61-.35-1.3-.54-1.76-.73-1.07,2.26-2.07,4.41-3.14,6.67M19.18,28.8c-.31,1.19-.54,2.38-.92,3.53-.27.77-.04,1.23.73,1.57,2.19-2.3,3.53-5.1,4.29-8.2.04-.15-.27-.5-.46-.58-.81-.27-1.61-.5-2.53-.73-.35,1.46-.73,2.88-1.11,4.41M17.15,28.73c.38-1.53.77-3.11,1.19-4.75-.84-.12-1.61-.23-2.38-.35-.5-.08-.73.15-.81.61-.23,1-.35,1.99-.65,2.91-.58,1.99.84,2.95,1.92,4.37.27-1.04.5-1.84.73-2.8M36.43,33.56c.31-.58.65-1.19.96-1.76-.08-.04-.15-.12-.23-.15-2.42,3.37-5.33,6.25-8.59,8.78,3.34-1.3,5.79-3.72,7.86-6.86M12.62,25.43s.04.04.08.04c0,0,.04,0,.08-.04.19-.61.38-1.27.58-1.96h-1.46c.23.65.46,1.23.73,1.96Z"/>
    <path class="cls-2" d="M31.21,13.89c-.65-.15-1.27-.35-1.96-.61,2.42-2.88,4.87-5.75,7.36-8.55.42-.46,1.07-.69,1.65-1,.61-.35,1.27-.58,1.8-.96.38-.27.58-.81.96-1.38-.65-.04-.96-.04-1.38-.08.23-.27.38-.5.58-.73.42-.54.96-.84,1.53-.31.54.5.42,1.07-.08,1.61-1.15,1.3-2.3,2.65-3.45,3.95-2.3,2.65-4.64,5.33-7.02,8.05Z"/>
    <path class="cls-2" d="M10.28,34.9c.42.42.81.92,1.23,1.5-2.19,2.57-4.37,5.1-6.56,7.63-.04.04-.08.08-.12.15-.61.69-1.19.81-1.65.31-.54-.58-.23-1.11.19-1.61,1.23-1.42,2.49-2.88,3.72-4.29,1.04-1.23,2.11-2.42,3.18-3.68Z"/>
  </g>
</svg>